<mxfile host="app.diagrams.net" modified="2023-09-30T15:10:57.654Z" agent="Mozilla/5.0 (Windows NT 10.0; Win64; x64) AppleWebKit/537.36 (KHTML, like Gecko) Chrome/117.0.0.0 Safari/537.36" version="21.6.9" etag="nUXvoogOBl5eHp6uQnTK" type="github">
  <diagram name="Page-1" id="gWzTRO8Fcu5RFSTqS0MK">
    <mxGraphModel>
      <root>
        <mxCell id="0" />
        <mxCell id="1" parent="0" />
      </root>
    </mxGraphModel>
  </diagram>
</mxfile>
